boontp-simple.ufo
<glyph name="uni0E03" format="1">
  <advance width="660"/>
  <unicode hex="0E03"/>
  <outline>
    <contour>
      <point x="570" y="0" type="line"/>
      <point x="90" y="0" type="line"/>
      <point x="90" y="240" type="line"/>
      <point x="279" y="450" type="line"/>
      <point x="280" y="510" type="line"/>
      <point x="200" y="460" type="line"/>
      <point x="120" y="510" type="line"/>
      <point x="120" y="420" type="line"/>
      <point x="20" y="420" type="line"/>
      <point x="20" y="600" type="line"/>
      <point x="120" y="600" type="line"/>
      <point x="200" y="550" type="line"/>
      <point x="280" y="600" type="line"/>
      <point x="380" y="600" type="line"/>
      <point x="380" y="420" type="line"/>
      <point x="190" y="210" type="line"/>
      <point x="190" y="90" type="line"/>
      <point x="470" y="90" type="line"/>
      <point x="470" y="600" type="line"/>
      <point x="570" y="600" type="line"/>
    </contour>
  </outline>
</glyph>
<glyph name="uni0E05" format="1">
  <advance width="660"/>
  <unicode hex="0E05"/>
  <outline>
    <contour>
      <point x="90" y="600" type="line"/>
      <point x="190" y="600" type="line"/>
      <point x="330" y="510" type="line"/>
      <point x="470" y="600" type="line"/>
      <point x="570" y="600" type="line"/>
      <point x="570" y="0" type="line"/>
      <point x="470" y="0" type="line"/>
      <point x="470" y="510" type="line"/>
      <point x="330" y="420" type="line"/>
      <point x="190" y="510" type="line"/>
      <point x="190" y="330" type="line"/>
      <point x="370" y="330" type="line"/>
      <point x="370" y="200" type="line"/>
      <point x="290" y="200" type="line"/>
      <point x="290" y="240" type="line"/>
      <point x="190" y="240" type="line"/>
      <point x="190" y="0" type="line"/>
      <point x="90" y="0" type="line"/>
    </contour>
  </outline>
</glyph>
<glyph name="uni0E06" format="1">
  <advance width="660"/>
  <unicode hex="0E06"/>
  <outline>
    <contour>
      <point x="214" y="237" type="line"/>
      <point x="470" y="100" type="line"/>
      <point x="470" y="600" type="line"/>
      <point x="570" y="600" type="line"/>
      <point x="570" y="0" type="line"/>
      <point x="470" y="0" type="line"/>
      <point x="190" y="150" type="line"/>
      <point x="190" y="0" type="line"/>
      <point x="30" y="0" type="line"/>
      <point x="30" y="90" type="line"/>
      <point x="90" y="90" type="line"/>
      <point x="90" y="240" type="line"/>
      <point x="280" y="450" type="line"/>
      <point x="280" y="510" type="line"/>
      <point x="200" y="460" type="line"/>
      <point x="120" y="510" type="line"/>
      <point x="120" y="420" type="line"/>
      <point x="20" y="420" type="line"/>
      <point x="20" y="600" type="line"/>
      <point x="120" y="600" type="line"/>
      <point x="200" y="550" type="line"/>
      <point x="280" y="600" type="line"/>
      <point x="380" y="600" type="line"/>
      <point x="380" y="420" type="line"/>
    </contour>
  </outline>
</glyph>
<glyph name="uni0E07" format="1">
  <advance width="600"/>
  <unicode hex="0E07"/>
  <outline>
    <contour>
      <point x="290" y="0" type="line"/>
      <point x="40" y="420" type="line"/>
      <point x="150" y="420" type="line"/>
      <point x="340" y="90" type="line"/>
      <point x="410" y="90" type="line"/>
      <point x="410" y="510" type="line"/>
      <point x="350" y="510" type="line"/>
      <point x="350" y="600" type="line"/>
      <point x="510" y="600" type="line"/>
      <point x="510" y="0" type="line"/>
    </contour>
  </outline>
</glyph>
<glyph name="uni0E08" format="1">
  <advance width="660"/>
  <unicode hex="0E08"/>
  <outline>
    <contour>
      <point x="320" y="0" type="line"/>
      <point x="200" y="240" type="line"/>
      <point x="140" y="240" type="line"/>
      <point x="140" y="330" type="line"/>
      <point x="270" y="330" type="line"/>
      <point x="380" y="90" type="line"/>
      <point x="470" y="90" type="line"/>
      <point x="470" y="510" type="line"/>
      <point x="190" y="510" type="line"/>
      <point x="190" y="400" type="line"/>
      <point x="90" y="400" type="line"/>
      <point x="90" y="600" type="line"/>
      <point x="570" y="600" type="line"/>
      <point x="570" y="0" type="line"/>
    </contour>
  </outline>
</glyph>
<glyph name="uni0E0A" format="1">
  <advance width="660"/>
  <unicode hex="0E0A"/>
  <outline>
    <contour>
      <point x="520" y="660" type="line"/>
      <point x="630" y="660" type="line"/>
      <point x="470" y="500" type="line"/>
      <point x="570" y="500" type="line"/>
      <point x="570" y="0" type="line"/>
      <point x="90" y="0" type="line"/>
      <point x="90" y="240" type="line"/>
      <point x="220" y="510" type="line"/>
      <point x="90" y="510" type="line"/>
      <point x="90" y="600" type="line"/>
      <point x="320" y="600" type="line"/>
      <point x="320" y="500" type="line"/>
      <point x="190" y="230" type="line"/>
      <point x="190" y="90" type="line"/>
      <point x="470" y="90" type="line"/>
      <point x="470" y="420" type="line"/>
      <point x="360" y="420" type="line"/>
      <point x="361" y="500" type="line"/>
    </contour>
  </outline>
</glyph>
<glyph name="uni0E0D" format="1">
  <advance width="990"/>
  <unicode hex="0E0D"/>
  <outline>
    <contour>
      <point x="490" y="-60" type="line"/>
      <point x="590" y="-60" type="line"/>
      <point x="590" y="-100" type="line"/>
      <point x="880" y="-100" type="line"/>
      <point x="880" y="-180" type="line"/>
      <point x="490" y="-180" type="line"/>
    </contour>
    <contour>
      <point x="460" y="0" type="line"/>
      <point x="460" y="510" type="line"/>
      <point x="190" y="510" type="line"/>
      <point x="190" y="90" type="line"/>
      <point x="270" y="90" type="line"/>
      <point x="270" y="0" type="line"/>
      <point x="90" y="0" type="line"/>
      <point x="90" y="510" type="line"/>
      <point x="50" y="510" type="line"/>
      <point x="50" y="600" type="line"/>
      <point x="560" y="600" type="line"/>
      <point x="560" y="90" type="line"/>
      <point x="800" y="90" type="line"/>
      <point x="800" y="600" type="line"/>
      <point x="900" y="600" type="line"/>
      <point x="900" y="0" type="line"/>
    </contour>
  </outline>
</glyph>
<glyph name="uni0E0E" format="1">
  <advance width="660"/>
  <unicode hex="0E0E"/>
  <outline>
    <contour>
      <point x="470" y="-240" type="line"/>
      <point x="190" y="-150" type="line"/>
      <point x="190" y="-210" type="line"/>
      <point x="90" y="-210" type="line"/>
      <point x="90" y="-70" type="line"/>
      <point x="190" y="-70" type="line"/>
      <point x="470" y="-160" type="line"/>
      <point x="470" y="510" type="line"/>
      <point x="190" y="510" type="line"/>
      <point x="190" y="0" type="line"/>
      <point x="30" y="0" type="line"/>
      <point x="30" y="90" type="line"/>
      <point x="90" y="90" type="line"/>
      <point x="90" y="510" type="line"/>
      <point x="50" y="510" type="line"/>
      <point x="50" y="600" type="line"/>
      <point x="570" y="600" type="line"/>
      <point x="570" y="-240" type="line"/>
    </contour>
  </outline>
</glyph>
<glyph name="uni0E0F" format="1">
  <advance width="660"/>
  <unicode hex="0E0F"/>
  <outline>
    <contour>
      <point x="470" y="-240" type="line"/>
      <point x="310" y="-140" type="line"/>
      <point x="150" y="-240" type="line"/>
      <point x="60" y="-240" type="line"/>
      <point x="60" y="-90" type="line"/>
      <point x="150" y="-90" type="line"/>
      <point x="151" y="-156" type="line"/>
      <point x="310" y="-60" type="line"/>
      <point x="470" y="-160" type="line"/>
      <point x="470" y="510" type="line"/>
      <point x="190" y="510" type="line"/>
      <point x="190" y="0" type="line"/>
      <point x="30" y="0" type="line"/>
      <point x="30" y="90" type="line"/>
      <point x="90" y="90" type="line"/>
      <point x="90" y="510" type="line"/>
      <point x="50" y="510" type="line"/>
      <point x="50" y="600" type="line"/>
      <point x="570" y="600" type="line"/>
      <point x="570" y="-240" type="line"/>
    </contour>
  </outline>
</glyph>
<glyph name="uni0E10" format="1">
  <advance width="660"/>
  <unicode hex="0E10"/>
  <outline>
    <contour>
      <point x="570" y="-60" type="line"/>
      <point x="570" y="-240" type="line"/>
      <point x="470" y="-240" type="line"/>
      <point x="330" y="-140" type="line"/>
      <point x="190" y="-240" type="line"/>
      <point x="100" y="-240" type="line"/>
      <point x="100" y="-90" type="line"/>
      <point x="190" y="-90" type="line"/>
      <point x="190" y="-156" type="line"/>
      <point x="330" y="-60" type="line"/>
      <point x="470" y="-160" type="line"/>
      <point x="470" y="-60" type="line"/>
    </contour>
    <contour>
      <point x="90" y="600" type="line"/>
      <point x="570" y="600" type="line"/>
      <point x="570" y="510" type="line"/>
      <point x="190" y="510" type="line"/>
      <point x="190" y="390" type="line"/>
      <point x="570" y="390" type="line"/>
      <point x="570" y="0" type="line"/>
      <point x="320" y="0" type="line"/>
      <point x="200" y="150" type="line"/>
      <point x="140" y="150" type="line"/>
      <point x="140" y="240" type="line"/>
      <point x="270" y="240" type="line"/>
      <point x="380" y="90" type="line"/>
      <point x="470" y="90" type="line"/>
      <point x="470" y="300" type="line"/>
      <point x="90" y="300" type="line"/>
    </contour>
  </outline>
</glyph>
<glyph name="uni0E11" format="1">
  <advance width="660"/>
  <unicode hex="0E11"/>
  <outline>
    <contour>
      <point x="190" y="210" type="line"/>
      <point x="190" y="0" type="line"/>
      <point x="90" y="0" type="line"/>
      <point x="90" y="240" type="line"/>
      <point x="279" y="450" type="line"/>
      <point x="280" y="510" type="line"/>
      <point x="200" y="460" type="line"/>
      <point x="120" y="510" type="line"/>
      <point x="120" y="420" type="line"/>
      <point x="20" y="420" type="line"/>
      <point x="20" y="600" type="line"/>
      <point x="120" y="600" type="line"/>
      <point x="200" y="550" type="line"/>
      <point x="280" y="600" type="line"/>
      <point x="380" y="600" type="line"/>
      <point x="380" y="510" type="line"/>
      <point x="470" y="600" type="line"/>
      <point x="570" y="600" type="line"/>
      <point x="570" y="0" type="line"/>
      <point x="470" y="0" type="line"/>
      <point x="470" y="490" type="line"/>
    </contour>
  </outline>
</glyph>
<glyph name="uni0E15" format="1">
  <advance width="660"/>
  <unicode hex="0E15"/>
  <outline>
    <contour>
      <point x="90" y="0" type="line"/>
      <point x="90" y="600" type="line"/>
      <point x="190" y="600" type="line"/>
      <point x="330" y="510" type="line"/>
      <point x="470" y="600" type="line"/>
      <point x="570" y="600" type="line"/>
      <point x="570" y="0" type="line"/>
      <point x="470" y="0" type="line"/>
      <point x="470" y="510" type="line"/>
      <point x="330" y="420" type="line"/>
      <point x="190" y="510" type="line"/>
      <point x="190" y="90" type="line"/>
      <point x="300" y="90" type="line"/>
      <point x="300" y="240" type="line"/>
      <point x="260" y="240" type="line"/>
      <point x="260" y="330" type="line"/>
      <point x="390" y="330" type="line"/>
      <point x="390" y="0" type="line"/>
    </contour>
  </outline>
</glyph>
<glyph name="uni0E1B" format="1">
  <advance width="670"/>
  <unicode hex="0E1B"/>
  <outline>
    <contour>
      <point x="580" y="0" type="line"/>
      <point x="100" y="0" type="line"/>
      <point x="100" y="510" type="line"/>
      <point x="40" y="510" type="line"/>
      <point x="40" y="600" type="line"/>
      <point x="200" y="600" type="line"/>
      <point x="200" y="90" type="line"/>
      <point x="480" y="90" type="line"/>
      <point x="480" y="840" type="line"/>
      <point x="580" y="840" type="line"/>
    </contour>
  </outline>
</glyph>
<glyph name="uni0E23" format="1">
  <advance width="600"/>
  <unicode hex="0E23"/>
  <outline>
    <contour>
      <point x="320" y="90" type="line"/>
      <point x="410" y="90" type="line"/>
      <point x="410" y="300" type="line"/>
      <point x="60" y="300" type="line"/>
      <point x="60" y="600" type="line"/>
      <point x="510" y="600" type="line"/>
      <point x="510" y="510" type="line"/>
      <point x="160" y="510" type="line"/>
      <point x="160" y="390" type="line"/>
      <point x="510" y="390" type="line"/>
      <point x="510" y="0" type="line"/>
      <point x="320" y="0" type="line"/>
    </contour>
  </outline>
</glyph>
<glyph name="uni0E27" format="1">
  <advance width="600"/>
  <unicode hex="0E27"/>
  <outline>
    <contour>
      <point x="350" y="90" type="line"/>
      <point x="410" y="90" type="line"/>
      <point x="410" y="510" type="line"/>
      <point x="160" y="510" type="line"/>
      <point x="160" y="400" type="line"/>
      <point x="60" y="400" type="line"/>
      <point x="60" y="600" type="line"/>
      <point x="510" y="600" type="line"/>
      <point x="510" y="0" type="line"/>
      <point x="350" y="0" type="line"/>
    </contour>
  </outline>
</glyph>
<glyph name="uni0E29" format="1">
  <advance width="690"/>
  <unicode hex="0E29"/>
  <outline>
    <contour>
      <point x="580" y="0" type="line"/>
      <point x="100" y="0" type="line"/>
      <point x="100" y="510" type="line"/>
      <point x="40" y="510" type="line"/>
      <point x="40" y="600" type="line"/>
      <point x="200" y="600" type="line"/>
      <point x="200" y="90" type="line"/>
      <point x="480" y="90" type="line"/>
      <point x="480" y="240" type="line"/>
      <point x="300" y="240" type="line"/>
      <point x="300" y="370" type="line"/>
      <point x="380" y="370" type="line"/>
      <point x="380" y="330" type="line"/>
      <point x="480" y="330" type="line"/>
      <point x="480" y="600" type="line"/>
      <point x="580" y="600" type="line"/>
      <point x="580" y="330" type="line"/>
      <point x="670" y="330" type="line"/>
      <point x="670" y="240" type="line"/>
      <point x="580" y="240" type="line"/>
    </contour>
  </outline>
</glyph>
<glyph name="uni0E2B" format="1">
  <advance width="660"/>
  <unicode hex="0E2B"/>
  <outline>
    <contour>
      <point x="570" y="0" type="line"/>
      <point x="470" y="0" type="line"/>
      <point x="470" y="410" type="line"/>
      <point x="190" y="260" type="line"/>
      <point x="190" y="0" type="line"/>
      <point x="90" y="0" type="line"/>
      <point x="90" y="510" type="line"/>
      <point x="30" y="510" type="line"/>
      <point x="30" y="600" type="line"/>
      <point x="190" y="600" type="line"/>
      <point x="190" y="360" type="line"/>
      <point x="470" y="510" type="line"/>
      <point x="470" y="600" type="line"/>
      <point x="630" y="600" type="line"/>
      <point x="630" y="510" type="line"/>
      <point x="570" y="510" type="line"/>
    </contour>
  </outline>
</glyph>
<glyph name="uni0E32" format="1">
  <advance width="570"/>
  <unicode hex="0E32"/>
  <outline>
    <contour>
      <point x="380" y="510" type="line"/>
      <point x="190" y="510" type="line"/>
      <point x="190" y="400" type="line"/>
      <point x="90" y="400" type="line"/>
      <point x="90" y="600" type="line"/>
      <point x="480" y="600" type="line"/>
      <point x="480" y="0" type="line"/>
      <point x="380" y="0" type="line"/>
    </contour>
  </outline>
</glyph>
<glyph name="uni0E35" format="1">
  <advance width="0"/>
  <unicode hex="0E35"/>
  <outline>
    <contour>
      <point x="-90" y="840" type="line"/>
      <point x="-90" y="690" type="line"/>
      <point x="-480" y="690" type="line"/>
      <point x="-480" y="770" type="line"/>
      <point x="-180" y="770" type="line"/>
      <point x="-180" y="840" type="line"/>
    </contour>
  </outline>
</glyph>
<glyph name="uni0E38" format="1">
  <advance width="0"/>
  <unicode hex="0E38"/>
  <outline>
    <contour>
      <point x="-180" y="-240" type="line"/>
      <point x="-180" y="-140" type="line"/>
      <point x="-230" y="-140" type="line"/>
      <point x="-230" y="-60" type="line"/>
      <point x="-90" y="-60" type="line"/>
      <point x="-90" y="-240" type="line"/>
    </contour>
  </outline>
</glyph>
<glyph name="uni0E40" format="1">
  <advance width="300"/>
  <unicode hex="0E40"/>
  <outline>
    <contour>
      <point x="190" y="600" type="line"/>
      <point x="190" y="90" type="line"/>
      <point x="270" y="90" type="line"/>
      <point x="270" y="0" type="line"/>
      <point x="90" y="0" type="line"/>
      <point x="90" y="600" type="line"/>
    </contour>
  </outline>
</glyph>
<glyph name="uni0E44" format="1">
  <advance width="300"/>
  <unicode hex="0E44"/>
  <outline>
    <contour>
      <point x="-30" y="760" type="line"/>
      <point x="-30" y="840" type="line"/>
      <point x="150" y="800" type="line"/>
      <point x="330" y="840" type="line"/>
      <point x="330" y="670" type="line"/>
      <point x="200" y="610" type="line"/>
      <point x="200" y="90" type="line"/>
      <point x="280" y="90" type="line"/>
      <point x="280" y="0" type="line"/>
      <point x="100" y="0" type="line"/>
      <point x="100" y="650" type="line"/>
      <point x="240" y="710" type="line"/>
      <point x="240" y="741" type="line"/>
      <point x="150" y="720" type="line"/>
    </contour>
  </outline>
</glyph>
<glyph name="uni0E46" format="1">
  <advance width="660"/>
  <unicode hex="0E46"/>
  <outline>
    <contour>
      <point x="90" y="300" type="line"/>
      <point x="90" y="600" type="line"/>
      <point x="190" y="600" type="line"/>
      <point x="330" y="510" type="line"/>
      <point x="470" y="600" type="line"/>
      <point x="570" y="600" type="line"/>
      <point x="570" y="-240" type="line"/>
      <point x="470" y="-240" type="line"/>
      <point x="470" y="510" type="line"/>
      <point x="330" y="420" type="line"/>
      <point x="190" y="510" type="line"/>
      <point x="190" y="390" type="line"/>
      <point x="250" y="390" type="line"/>
      <point x="250" y="300" type="line"/>
    </contour>
  </outline>
</glyph>
<glyph name="uni0E48" format="1">
  <advance width="0"/>
  <unicode hex="0E48"/>
  <outline>
    <contour>
      <point x="-170" y="1080" type="line"/>
      <point x="-90" y="1080" type="line"/>
      <point x="-90" y="900" type="line"/>
      <point x="-170" y="900" type="line"/>
    </contour>
  </outline>
</glyph>
<glyph name="uni0E4A" format="1">
  <advance width="0"/>
  <unicode hex="0E4A"/>
  <outline>
    <contour>
      <point x="-180" y="900" type="line"/>
      <point x="-180" y="980" type="line"/>
      <point x="-230" y="930" type="line"/>
      <point x="-280" y="980" type="line"/>
      <point x="-280" y="900" type="line"/>
      <point x="-340" y="900" type="line"/>
      <point x="-340" y="1050" type="line"/>
      <point x="-280" y="1050" type="line"/>
      <point x="-230" y="1000" type="line"/>
      <point x="-180" y="1050" type="line"/>
      <point x="-120" y="1050" type="line"/>
      <point x="-120" y="950" type="line"/>
      <point x="-90" y="950" type="line"/>
      <point x="-90" y="1050" type="line"/>
      <point x="-30" y="1050" type="line"/>
      <point x="-30" y="900" type="line"/>
    </contour>
  </outline>
</glyph>
<glyph name="uni0E4C" format="1">
  <advance width="0"/>
  <unicode hex="0E4C"/>
  <outline>
    <contour>
      <point x="-320" y="880" type="line"/>
      <point x="-320" y="1000" type="line"/>
      <point x="-40" y="1000" type="line"/>
      <point x="-40" y="930" type="line"/>
      <point x="-220" y="930" type="line"/>
      <point x="-220" y="880" type="line"/>
    </contour>
  </outline>
</glyph>
